<?xml version="1.0" encoding="utf-8"?>
<!-- Generator: Adobe Illustrator 21.1.0, SVG Export Plug-In . SVG Version: 6.00 Build 0)  -->
<svg version="1.1" id="Layer_1" xmlns="http://www.w3.org/2000/svg" xmlns:xlink="http://www.w3.org/1999/xlink" x="0px" y="0px"
	 viewBox="0 0 34 34" style="enable-background:new 0 0 34 34;" xml:space="preserve">
<style type="text/css">
	.st0{fill:#FFFFFF;}
</style>
<title>icon-Asset 23search</title>
<g id="Layer_2">
	<g id="Layer_1-2">
		<path id="_Compound_Path_" class="st0" d="M33.2,29.2L26,22c4.3-6.5,2.5-15.4-4-19.7S6.6-0.3,2.3,6.3s-2.5,15.4,4,19.7
			c4.8,3.2,10.9,3.2,15.7,0l7.2,7.2c1.2,1,3,0.8,4-0.4C34.1,31.8,34.1,30.3,33.2,29.2L33.2,29.2z M4.2,14.2c0-5.5,4.4-9.9,9.9-9.9
			s9.9,4.4,9.9,9.9s-4.4,9.9-9.9,9.9C8.7,24.1,4.3,19.7,4.2,14.2L4.2,14.2z"/>
	</g>
</g>
</svg>
